<svg width="1299" height="360" viewBox="0 0 1299 360" fill="none" xmlns="http://www.w3.org/2000/svg">
<g clip-path="url(#clip0_334_3321)">
<rect width="1299" height="360" rx="16" fill="url(#paint0_linear_334_3321)"/>
<path d="M464.142 204.985C239.803 257.506 0 0 0 0H1299V413C1299 413 887.399 74.3298 585.537 157.526C532.415 172.167 519.238 192.087 464.142 204.985Z" fill="#BA020E"/>
<path opacity="0.72" d="M450.411 156.514C222.382 195.847 47.0033 3 47.0033 3H1299V312.297C1299 312.297 880.629 58.6659 573.803 120.972C519.807 131.936 506.413 146.855 450.411 156.514Z" fill="url(#paint1_linear_334_3321)"/>
<g filter="url(#filter0_f_334_3321)">
<ellipse cx="1240.96" cy="189.495" rx="193.691" ry="263.142" transform="rotate(19.9849 1240.96 189.495)" fill="black"/>
</g>
</g>
<defs>
<filter id="filter0_f_334_3321" x="837.885" y="-266.572" width="806.156" height="912.134" filterUnits="userSpaceOnUse" color-interpolation-filters="sRGB">
<feFlood flood-opacity="0" result="BackgroundImageFix"/>
<feBlend mode="normal" in="SourceGraphic" in2="BackgroundImageFix" result="shape"/>
<feGaussianBlur stdDeviation="100" result="effect1_foregroundBlur_334_3321"/>
</filter>
<linearGradient id="paint0_linear_334_3321" x1="649.5" y1="0" x2="649.5" y2="360" gradientUnits="userSpaceOnUse">
<stop stop-color="#EA0212"/>
<stop offset="1" stop-color="#87040D"/>
</linearGradient>
<linearGradient id="paint1_linear_334_3321" x1="673.002" y1="3" x2="673.002" y2="312.297" gradientUnits="userSpaceOnUse">
<stop stop-color="#A9010C"/>
<stop offset="1" stop-color="#8E0009"/>
</linearGradient>
<clipPath id="clip0_334_3321">
<rect width="1299" height="360" rx="16" fill="white"/>
</clipPath>
</defs>
</svg>
