<svg width="195" height="150" viewBox="0 0 260 200" fill="none" xmlns="http://www.w3.org/2000/svg" role="img" aria-label="FAQ">
  <defs>
    <linearGradient id="faq-red" x1="0" y1="0" x2="1" y2="1">
      <stop offset="0" stop-color="#ea0212"/>
      <stop offset="1" stop-color="#87040d"/>
    </linearGradient>
  </defs>

  <!-- soft backdrop -->
  <circle cx="132" cy="100" r="86" fill="#eef0f2"/>

  <!-- back bubble (answer) -->
  <g>
    <path d="M96 118 h96 a16 16 0 0 1 16 16 v40 a16 16 0 0 1 -16 16 h-58 l-20 18 v-18 h-18 a16 16 0 0 1 -16 -16 v-40 a16 16 0 0 1 16 -16 z"
          fill="#ffffff" stroke="#d7dade" stroke-width="2"/>
    <text x="150" y="162" text-anchor="middle" font-family="'NT Somic', Arial, sans-serif"
          font-size="42" font-weight="700" fill="#c9ccd1">!</text>
  </g>

  <!-- front bubble (question) -->
  <g>
    <path d="M70 40 h94 a18 18 0 0 1 18 18 v46 a18 18 0 0 1 -18 18 h-70 l-24 22 v-22 h-0 a18 18 0 0 1 -18 -18 v-46 a18 18 0 0 1 18 -18 z"
          fill="url(#faq-red)"/>
    <text x="116" y="98" text-anchor="middle" font-family="'NT Somic', Arial, sans-serif"
          font-size="60" font-weight="700" fill="#ffffff">?</text>
  </g>
</svg>
