<svg width="31" height="30" viewBox="0 0 31 30" fill="none" xmlns="http://www.w3.org/2000/svg">
<path d="M11.0775 12.8551H23.5983L28.598 0.626877C28.9066 0.047349 29.6209 -0.169337 30.194 0.142716C30.7671 0.45477 30.9814 1.17706 30.6728 1.75659L25.3385 14.6117L25.0055 15.2386H11.0084L9.60889 19.4828C9.52409 19.74 9.71365 20.0057 9.9818 20.0057H29.0154C29.6664 20.0057 30.194 20.5393 30.194 21.1975C30.194 21.8557 29.6664 22.3893 29.0154 22.3893H9.9818C8.10476 22.3893 6.77941 20.5293 7.37298 18.7286L8.9306 13.9972L6.09619 2.52628L1.17857 2.52627C0.527665 2.52627 0 1.99269 0 1.33449C0 0.676283 0.527665 0.142704 1.17857 0.142704L7.93618 0.14272L11.0775 12.8551Z" fill="#B9B9B9"/>
<path d="M13.3011 26.7591C13.3011 28.0756 12.2458 29.1427 10.944 29.1427C9.64218 29.1427 8.58685 28.0756 8.58685 26.7591C8.58685 25.4427 9.64218 24.3756 10.944 24.3756C12.2458 24.3756 13.3011 25.4427 13.3011 26.7591Z" fill="#B9B9B9"/>
<path d="M27.444 26.7591C27.444 28.0756 26.3887 29.1427 25.0869 29.1427C23.7851 29.1427 22.7297 28.0756 22.7297 26.7591C22.7297 25.4427 23.7851 24.3756 25.0869 24.3756C26.3887 24.3756 27.444 25.4427 27.444 26.7591Z" fill="#B9B9B9"/>
</svg>
