<svg width="29" height="29" viewBox="0 0 29 29" fill="none" xmlns="http://www.w3.org/2000/svg">
<path fill-rule="evenodd" clip-rule="evenodd" d="M24.4153 0.0062934C26.9691 0.135679 29 2.24733 29 4.83333V24.1667L28.9937 24.4153C28.8685 26.8868 26.8868 28.8685 24.4153 28.9937L24.1667 29H4.83333C2.24733 29 0.135679 26.9691 0.0062934 24.4153L0 24.1667V4.83333C3.11395e-07 2.16396 2.16396 7.78476e-08 4.83333 0H24.1667L24.4153 0.0062934ZM4.83333 2.41667C3.49865 2.41667 2.41667 3.49865 2.41667 4.83333V24.1667C2.41667 25.5014 3.49865 26.5833 4.83333 26.5833H6.84722V8.05556C6.84722 7.38821 7.38821 6.84722 8.05556 6.84722C8.7229 6.84722 9.26389 7.38821 9.26389 8.05556V26.5833H13.2917V16.1111C13.2917 15.4438 13.8327 14.9028 14.5 14.9028C15.1673 14.9028 15.7083 15.4438 15.7083 16.1111V26.5833H19.7361V12.8889C19.7361 12.2215 20.2771 11.6806 20.9444 11.6806C21.6118 11.6806 22.1528 12.2215 22.1528 12.8889V26.5833H24.1667C25.5014 26.5833 26.5833 25.5014 26.5833 24.1667V4.83333C26.5833 3.49865 25.5014 2.41667 24.1667 2.41667H4.83333Z" fill="#B9B9B9"/>
</svg>
