<svg width="38" height="47" viewBox="0 0 38 47" fill="none" xmlns="http://www.w3.org/2000/svg">
    <path d="M14.8229 43.3563C16.0854 44.3979 17.4021 45.35 18.75 46.2792C20.1008 45.3623 21.4111 44.3871 22.6771 43.3563C24.7875 41.6234 26.7736 39.7444 28.6208 37.7333C32.8792 33.0771 37.5 26.3271 37.5 18.75C37.5 16.2877 37.015 13.8495 36.0727 11.5747C35.1305 9.29983 33.7493 7.23285 32.0083 5.49175C30.2672 3.75065 28.2002 2.36953 25.9253 1.42726C23.6505 0.484983 21.2123 0 18.75 0C16.2877 0 13.8495 0.484983 11.5747 1.42726C9.29983 2.36953 7.23285 3.75065 5.49175 5.49175C3.75065 7.23285 2.36953 9.29983 1.42726 11.5747C0.484983 13.8495 -3.66909e-08 16.2877 0 18.75C0 26.3271 4.62083 33.075 8.87917 37.7333C10.7263 39.7452 12.7124 41.6227 14.8229 43.3563ZM18.75 25.5208C16.9543 25.5208 15.2321 24.8075 13.9623 23.5377C12.6925 22.2679 11.9792 20.5457 11.9792 18.75C11.9792 16.9543 12.6925 15.2321 13.9623 13.9623C15.2321 12.6925 16.9543 11.9792 18.75 11.9792C20.5457 11.9792 22.2679 12.6925 23.5377 13.9623C24.8075 15.2321 25.5208 16.9543 25.5208 18.75C25.5208 20.5457 24.8075 22.2679 23.5377 23.5377C22.2679 24.8075 20.5457 25.5208 18.75 25.5208Z" fill="#E2000F" />
</svg>