<svg width="38" height="30" viewBox="0 0 38 30" fill="none" xmlns="http://www.w3.org/2000/svg">
    <path d="M3.75 30C2.71875 30 1.83625 29.6331 1.1025 28.8994C0.36875 28.1656 0.00125 27.2825 0 26.25V3.75C0 2.71875 0.3675 1.83625 1.1025 1.1025C1.8375 0.36875 2.72 0.00125 3.75 0H33.75C34.7812 0 35.6644 0.3675 36.3994 1.1025C37.1344 1.8375 37.5013 2.72 37.5 3.75V26.25C37.5 27.2812 37.1331 28.1644 36.3994 28.8994C35.6656 29.6344 34.7825 30.0012 33.75 30H3.75ZM19.2431 16.4775C19.4144 16.43 19.5781 16.3594 19.7344 16.2656L33 7.96875C33.25 7.8125 33.4375 7.6175 33.5625 7.38375C33.6875 7.15 33.75 6.89188 33.75 6.60938C33.75 5.98438 33.4844 5.51562 32.9531 5.20312C32.4219 4.89062 31.875 4.90625 31.3125 5.25L18.75 13.125L6.1875 5.25C5.625 4.90625 5.07813 4.89875 4.54688 5.2275C4.01563 5.55625 3.75 6.01688 3.75 6.60938C3.75 6.92188 3.8125 7.19562 3.9375 7.43062C4.0625 7.66562 4.25 7.845 4.5 7.96875L17.7656 16.2656C17.9219 16.3594 18.0863 16.43 18.2587 16.4775C18.4312 16.525 18.595 16.5481 18.75 16.5469C18.905 16.5456 19.0694 16.5225 19.2431 16.4775Z" fill="#E2000F" />
</svg>