<svg width="47" height="47" viewBox="0 0 47 47" fill="none" xmlns="http://www.w3.org/2000/svg">
    <path d="M41.1243 35.0969V40.1455C41.1243 41.0581 41.1243 41.5144 40.9755 41.8747C40.7763 42.3536 40.3953 42.7339 39.9161 42.9322C39.5557 43.083 39.0994 43.083 38.1868 43.083C37.2743 43.083 36.818 43.083 36.4576 42.9342C35.9788 42.735 35.5984 42.354 35.4001 41.8747C35.2493 41.5144 35.2493 41.0581 35.2493 40.1455C35.2493 39.2329 35.2493 38.7766 35.1005 38.4163C34.9013 37.9374 34.5203 37.5571 34.0411 37.3588C33.6807 37.208 33.2244 37.208 32.3118 37.208H12.7285C11.8159 37.208 11.3596 37.208 10.9993 37.3568C10.5204 37.556 10.1401 37.937 9.94181 38.4163C9.79102 38.7766 9.79102 39.2329 9.79102 40.1455C9.79102 41.0581 9.79101 41.5144 9.64218 41.8747C9.443 42.3536 9.06198 42.7339 8.58272 42.9322C8.22239 43.083 7.7661 43.083 6.85352 43.083C5.94093 43.083 5.48464 43.083 5.12431 42.9342C4.64542 42.735 4.2651 42.354 4.06681 41.8747C3.91602 41.5144 3.91602 41.0581 3.91602 40.1455V35.0969C3.91602 32.743 3.91602 31.566 4.25285 30.4557C4.58968 29.3453 5.24181 28.3661 6.54802 26.4078L7.83268 24.4788L9.59714 20.5955C11.1188 17.2506 11.8786 15.5782 13.3317 14.6421C14.7828 13.708 16.6217 13.708 20.2955 13.708H24.7448C28.4206 13.708 30.2576 13.708 31.7087 14.6441C33.1618 15.5782 33.9216 17.2506 35.4432 20.5974L37.2077 24.4788L38.4923 26.4078C39.7986 28.3661 40.4507 29.3453 40.7875 30.4557C41.1243 31.566 41.1243 32.743 41.1243 35.0969Z" stroke="#F8F8F8" stroke-width="4" stroke-linecap="round" stroke-linejoin="round" />
    <path d="M3.91602 21.5415L7.83268 24.479L11.2813 25.3407C11.5946 25.419 11.9112 25.4582 12.2311 25.4582H32.8093C33.1291 25.4582 33.4457 25.419 33.7591 25.3407L37.2077 24.479L41.1244 21.5415M37.2077 13.7082C37.2077 12.6694 36.795 11.6732 36.0605 10.9387C35.326 10.2042 34.3298 9.7915 33.291 9.7915M43.0827 13.7082C43.0827 11.1113 42.0511 8.62071 40.2148 6.78442C38.3785 4.94812 35.8879 3.9165 33.291 3.9165M11.9941 31.3332H11.7493M33.5358 31.3332H33.291M12.2389 31.3332C12.2389 31.463 12.1874 31.5875 12.0955 31.6794C12.0037 31.7712 11.8792 31.8228 11.7493 31.8228C11.6195 31.8228 11.495 31.7712 11.4032 31.6794C11.3113 31.5875 11.2598 31.463 11.2598 31.3332C11.2598 31.2033 11.3113 31.0788 11.4032 30.987C11.495 30.8952 11.6195 30.8436 11.7493 30.8436C11.8792 30.8436 12.0037 30.8952 12.0955 30.987C12.1874 31.0788 12.2389 31.2033 12.2389 31.3332ZM33.7806 31.3332C33.7806 31.463 33.729 31.5875 33.6372 31.6794C33.5454 31.7712 33.4209 31.8228 33.291 31.8228C33.1612 31.8228 33.0366 31.7712 32.9448 31.6794C32.853 31.5875 32.8014 31.463 32.8014 31.3332C32.8014 31.2033 32.853 31.0788 32.9448 30.987C33.0366 30.8952 33.1612 30.8436 33.291 30.8436C33.4209 30.8436 33.5454 30.8952 33.6372 30.987C33.729 31.0788 33.7806 31.2033 33.7806 31.3332Z" stroke="#F8F8F8" stroke-width="4" stroke-linecap="round" stroke-linejoin="round" />
</svg>