<svg width="55" height="55" viewBox="0 0 55 55" fill="none" xmlns="http://www.w3.org/2000/svg">
    <path d="M20.6249 22.9166C20.6486 21.1007 21.3806 19.3657 22.6648 18.0815C23.949 16.7973 25.6839 16.0654 27.4999 16.0416C29.3159 16.0654 31.0508 16.7973 32.335 18.0815C33.6192 19.3657 34.3511 21.1007 34.3749 22.9166C34.3511 24.7326 33.6192 26.4675 32.335 27.7517C31.0508 29.0359 29.3159 29.7679 27.4999 29.7916C25.6839 29.7679 23.949 29.0359 22.6648 27.7517C21.3806 26.4675 20.6486 24.7326 20.6249 22.9166ZM27.4999 43.5416L36.6665 45.8333V38.775C33.9021 40.4398 30.7266 41.2971 27.4999 41.25C24.2732 41.2971 21.0977 40.4398 18.3332 38.775V45.8333M27.4999 9.16664C25.694 9.13369 23.9004 9.47043 22.2294 10.1562C20.5585 10.8419 19.0454 11.8621 17.7832 13.1541C16.4772 14.4177 15.4452 15.9365 14.7513 17.616C14.0574 19.2954 13.7166 21.0998 13.7499 22.9166C13.726 24.722 14.0715 26.5132 14.7651 28.1802C15.4587 29.8472 16.4857 31.3548 17.7832 32.6104C19.0395 33.9148 20.5499 34.9478 22.2212 35.6455C23.8924 36.3432 25.689 36.6907 27.4999 36.6666C29.3107 36.6907 31.1073 36.3432 32.7786 35.6455C34.4498 34.9478 35.9603 33.9148 37.2165 32.6104C38.514 31.3548 39.5411 29.8472 40.2347 28.1802C40.9283 26.5132 41.2738 24.722 41.2499 22.9166C41.2832 21.0998 40.9423 19.2954 40.2484 17.616C39.5546 15.9365 38.5225 14.4177 37.2165 13.1541C35.9544 11.8621 34.4413 10.8419 32.7703 10.1562C31.0993 9.47043 29.3058 9.13369 27.4999 9.16664ZM45.8332 22.9166C45.7864 25.1166 45.3439 27.2901 44.527 29.3333C43.7946 31.4137 42.6835 33.3406 41.2499 35.0166V52.7083L27.4999 48.125L13.7499 52.7083V35.0166C10.7837 31.6856 9.15165 27.3769 9.16654 22.9166C9.12615 20.5117 9.57913 18.1241 10.4975 15.901C11.4159 13.678 12.7802 11.6668 14.5061 9.99164C16.1875 8.2502 18.208 6.87184 20.4428 5.94164C22.6777 5.01145 25.0794 4.54916 27.4999 4.58331C29.9203 4.54916 32.3221 5.01145 34.5569 5.94164C36.7918 6.87184 38.8122 8.2502 40.4936 9.99164C42.2196 11.6668 43.5839 13.678 44.5023 15.901C45.4206 18.1241 45.8736 20.5117 45.8332 22.9166Z" fill="#F8F8F8" />
</svg>