<svg width="16" height="15" viewBox="0 0 16 15" fill="none" xmlns="http://www.w3.org/2000/svg">
<path d="M0.522964 0.650892C1.26765 -0.164401 2.53253 -0.221323 3.34816 0.522963L7.74953 4.54152L12.1509 0.522963C12.9664 -0.221609 14.2312 -0.164172 14.9761 0.650892C15.7208 1.46652 15.6636 2.73128 14.8482 3.47609L10.7153 7.24953L14.8482 11.023C15.6636 11.7678 15.7208 13.0325 14.9761 13.8482C14.2313 14.6636 12.9665 14.7208 12.1509 13.9761L7.74953 9.95656L3.34816 13.9761C2.53254 14.7208 1.26777 14.6636 0.522964 13.8482C-0.221331 13.0325 -0.164429 11.7676 0.650893 11.023L4.78371 7.24953L0.650893 3.47609C-0.164172 2.73123 -0.221609 1.46638 0.522964 0.650892Z" fill="#E2000F" />
</svg>