<svg width="29" height="29" viewBox="0 0 29 29" fill="none" xmlns="http://www.w3.org/2000/svg">
<path d="M14.5 0C22.5081 0 29 6.49187 29 14.5C29 22.5081 22.5081 29 14.5 29C6.49187 29 0 22.5081 0 14.5C0 6.49187 6.49187 0 14.5 0ZM14.5 2C7.59644 2 2 7.59644 2 14.5C2 18.1886 3.59858 21.503 6.13965 23.791C6.24757 23.1321 6.41702 22.486 6.64746 21.8643C7.07462 20.7118 7.70005 19.6643 8.48926 18.7822C9.27848 17.9002 10.2159 17.201 11.2471 16.7236C12.2783 16.2462 13.3838 16 14.5 16C15.6162 16 16.7217 16.2453 17.7529 16.7227C18.7842 17.2001 19.7214 17.9001 20.5107 18.7822C21.2999 19.6643 21.9254 20.7118 22.3525 21.8643C22.583 22.486 22.7514 23.1321 22.8594 23.791C25.4008 21.503 27 18.1888 27 14.5C27 7.59644 21.4036 2 14.5 2ZM14.5 7C16.9853 7 19 9.01472 19 11.5C19 13.9853 16.9853 16 14.5 16C12.0147 16 10 13.9853 10 11.5C10 9.01472 12.0147 7 14.5 7Z" fill="#B9B9B9"/>
</svg>
