<svg width="20" height="20" viewBox="0 0 20 20" fill="none" xmlns="http://www.w3.org/2000/svg">
<circle cx="10" cy="10" r="10" fill="#B9B9B9"/>
<path fill-rule="evenodd" clip-rule="evenodd" d="M13.7125 5.39958C13.8464 5.34324 13.9929 5.32381 14.1368 5.34331C14.2807 5.36281 14.4168 5.42053 14.5308 5.51045C14.6448 5.60038 14.7327 5.71922 14.7852 5.85462C14.8377 5.99002 14.853 6.13703 14.8294 6.28033L13.6009 13.732C13.4818 14.4508 12.6931 14.863 12.0339 14.505C11.4825 14.2055 10.6635 13.744 9.92681 13.2624C9.55848 13.0214 8.43018 12.2495 8.56885 11.7002C8.68802 11.2306 10.5839 9.46587 11.6672 8.41666C12.0924 8.00445 11.8985 7.76666 11.3964 8.14583C10.1494 9.08725 8.14743 10.5189 7.48552 10.9219C6.9016 11.2772 6.59718 11.3379 6.23318 11.2772C5.5691 11.1667 4.95323 10.9955 4.45056 10.787C3.77131 10.5053 3.80435 9.5715 4.45002 9.29958L13.7125 5.39958Z" fill="white"/>
</svg>
