<svg width="58" height="58" viewBox="0 0 58 58" fill="none" xmlns="http://www.w3.org/2000/svg">
    <path d="M25.375 50.75C25.375 50.75 21.75 50.75 21.75 47.125C21.75 43.5 25.375 32.625 39.875 32.625C54.375 32.625 58 43.5 58 47.125C58 50.75 54.375 50.75 54.375 50.75H25.375ZM39.875 29C42.7592 29 45.5253 27.8542 47.5648 25.8148C49.6042 23.7753 50.75 21.0092 50.75 18.125C50.75 15.2408 49.6042 12.4747 47.5648 10.4352C45.5253 8.39576 42.7592 7.25 39.875 7.25C36.9908 7.25 34.2247 8.39576 32.1852 10.4352C30.1458 12.4747 29 15.2408 29 18.125C29 21.0092 30.1458 23.7753 32.1852 25.8148C34.2247 27.8542 36.9908 29 39.875 29ZM18.908 50.75C18.3709 49.6182 18.1029 48.3776 18.125 47.125C18.125 42.2131 20.59 37.1562 25.143 33.64C22.8708 32.9383 20.5029 32.5959 18.125 32.625C3.625 32.625 0 43.5 0 47.125C0 50.75 3.625 50.75 3.625 50.75H18.908ZM16.3125 29C18.716 29 21.0211 28.0452 22.7207 26.3457C24.4202 24.6461 25.375 22.341 25.375 19.9375C25.375 17.534 24.4202 15.2289 22.7207 13.5293C21.0211 11.8298 18.716 10.875 16.3125 10.875C13.909 10.875 11.6039 11.8298 9.90434 13.5293C8.2048 15.2289 7.25 17.534 7.25 19.9375C7.25 22.341 8.2048 24.6461 9.90434 26.3457C11.6039 28.0452 13.909 29 16.3125 29Z" fill="#F8F8F8" />
</svg>