<svg width="44" height="47" viewBox="0 0 44 47" fill="none" xmlns="http://www.w3.org/2000/svg">
    <path d="M29.4653 3.37254C27.4509 1.19768 24.6373 0 21.5318 0C18.4098 0 15.5869 1.19043 13.5818 3.35184C11.555 5.53705 10.5675 8.50691 10.7993 11.7138C11.259 18.0407 16.0735 23.1875 21.5318 23.1875C26.9902 23.1875 31.7965 18.0417 32.2633 11.7159C32.4983 8.53797 31.5045 5.57432 29.4653 3.37254ZM39.7506 46.375H3.31309C2.83616 46.3812 2.36384 46.281 1.9305 46.0817C1.49716 45.8824 1.1137 45.589 0.808014 45.2229C0.135162 44.4186 -0.136049 43.3203 0.0647717 42.2095C0.938444 37.3629 3.66505 33.2917 7.95059 30.4336C11.7579 27.8964 16.5807 26.5 21.5318 26.5C26.483 26.5 31.3058 27.8975 35.1131 30.4336C39.3986 33.2906 42.1252 37.3619 42.9989 42.2085C43.1997 43.3192 42.9285 44.4175 42.2557 45.2218C41.9501 45.5882 41.5667 45.8818 41.1333 46.0812C40.7 46.2807 40.2276 46.3811 39.7506 46.375Z" fill="#F8F8F8" />
</svg>