<svg width="46" height="27" viewBox="0 0 46 27" fill="none" xmlns="http://www.w3.org/2000/svg">
    <path d="M43.342 26.8243H38.3977C36.5278 26.8243 35.9645 25.3098 32.6127 21.9558C29.6833 19.1327 28.4462 18.7817 27.7052 18.7817C26.6803 18.7817 26.4008 19.0633 26.4008 20.4738V24.9198C26.4008 26.1223 26.0108 26.8265 22.8692 26.8265C19.8213 26.6217 16.8657 25.6958 14.2458 24.125C11.6258 22.5542 9.4166 20.3834 7.8 17.7915C3.96286 13.0132 1.29222 7.40632 0 1.41583C0 0.674826 0.281667 0.00315961 1.69433 0.00315961H6.63433C7.904 0.00315961 8.36117 0.56866 8.8595 1.87516C11.258 8.93416 15.3508 15.0745 17.0127 15.0745C17.6497 15.0745 17.927 14.7928 17.927 13.2047V5.93333C17.7168 2.61616 15.9553 2.33666 15.9553 1.13633C15.9776 0.819649 16.1225 0.524132 16.3591 0.312545C16.5958 0.100958 16.9056 -0.0100285 17.2228 0.00315961H24.9882C26.0498 0.00315961 26.4008 0.531826 26.4008 1.80149V11.6165C26.4008 12.676 26.8558 13.027 27.1765 13.027C27.8135 13.027 28.3032 12.676 29.471 11.5103C31.9733 8.45675 34.0183 5.05563 35.542 1.41366C35.6972 0.975915 35.9917 0.601142 36.3803 0.346769C36.7689 0.0923961 37.2302 -0.0275446 37.6935 0.00532612H42.6357C44.1177 0.00532612 44.4318 0.746327 44.1177 1.80366C42.3196 5.82997 40.0955 9.6521 37.4833 13.2047C36.9503 14.0172 36.738 14.4397 37.4833 15.393C37.973 16.134 39.7063 17.5813 40.8698 18.9572C42.5642 20.6472 43.9703 22.6015 45.0342 24.7422C45.4588 26.1202 44.7525 26.8243 43.342 26.8243Z" fill="#E2000F" />
</svg>